<?xml version="1.0"?>
<svg xmlns="http://www.w3.org/2000/svg" xmlns:xlink="http://www.w3.org/1999/xlink" xmlns:svgjs="http://svgjs.com/svgjs" version="1.1" width="512" height="512" x="0" y="0" viewBox="0 0 51.492 51.492" style="enable-background:new 0 0 512 512" xml:space="preserve" class=""><g>
<g xmlns="http://www.w3.org/2000/svg">
	<g>
		<path style="" d="M42.461,25.251c0-8.969-7.296-16.264-16.264-16.264S9.933,16.282,9.933,25.251    c0,8.968,7.296,16.263,16.264,16.263C35.165,41.513,42.461,34.219,42.461,25.251z M26.197,39.347    c-7.772,0-14.095-6.323-14.095-14.096c0-7.771,6.324-14.096,14.095-14.096s14.095,6.324,14.095,14.096    C40.292,33.024,33.969,39.347,26.197,39.347z" fill="#ffe700" data-original="#010002" class=""/>
		<path style="" d="M7.179,25.883v-0.271c0-1.197-0.944-1.944-2.11-1.668l-4.182,0.987    c-1.166,0.277-1.185,0.789-0.041,1.146l4.263,1.328C6.252,27.761,7.179,27.08,7.179,25.883z" fill="#ffe700" data-original="#010002" class=""/>
		<path style="" d="M50.646,25.416l-4.264-1.328c-1.143-0.356-2.07,0.326-2.07,1.523v0.271    c0,1.196,0.945,1.944,2.11,1.668l4.183-0.988C51.771,26.286,51.79,25.773,50.646,25.416z" fill="#ffe700" data-original="#010002" class=""/>
		<path style="" d="M8.346,32.222l-0.094-0.254c-0.408-1.123-1.552-1.502-2.554-0.846l-3.591,2.36    c-1.002,0.657-0.843,1.146,0.354,1.089l4.46-0.211C8.117,34.306,8.754,33.347,8.346,32.222z" fill="#ffe700" data-original="#010002" class=""/>
		<path style="" d="M43.146,19.269l0.094,0.254c0.408,1.126,1.552,1.506,2.554,0.847l3.591-2.358    c1.002-0.659,0.844-1.146-0.354-1.09l-4.46,0.208C43.375,17.185,42.737,18.143,43.146,19.269z" fill="#ffe700" data-original="#010002" class=""/>
		<path style="" d="M11.437,37.578c-0.77-0.918-1.975-0.883-2.69,0.077L6.18,41.103c-0.716,0.96-0.4,1.363,0.704,0.9    l4.12-1.724c1.104-0.46,1.376-1.578,0.606-2.496L11.437,37.578z" fill="#ffe700" data-original="#010002" class=""/>
		<path style="" d="M40.057,13.916c0.771,0.918,1.974,0.883,2.688-0.077l2.569-3.447    c0.715-0.961,0.398-1.364-0.707-0.902l-4.118,1.722c-1.104,0.461-1.378,1.579-0.608,2.497L40.057,13.916z" fill="#ffe700" data-original="#010002" class=""/>
		<path style="" d="M16.58,41.892l-0.234-0.134c-1.037-0.6-2.156-0.154-2.501,0.993l-1.234,4.118    c-0.344,1.148,0.091,1.419,0.971,0.607l3.284-3.028C17.745,43.636,17.617,42.492,16.58,41.892z" fill="#ffe700" data-original="#010002" class=""/>
		<path style="" d="M34.912,9.599l0.234,0.135c1.037,0.6,2.156,0.155,2.5-0.993l1.236-4.116    c0.344-1.148-0.092-1.419-0.973-0.608l-3.282,3.027C33.747,7.856,33.875,9,34.912,9.599z" fill="#ffe700" data-original="#010002" class=""/>
		<path style="" d="M22.655,44.052l-0.267-0.045c-1.18-0.209-2.079,0.592-2.01,1.789l0.248,4.289    c0.069,1.196,0.571,1.303,1.12,0.238l2.05-3.968C24.346,45.293,23.835,44.261,22.655,44.052z" fill="#ffe700" data-original="#010002" class=""/>
		<path style="" d="M28.837,7.438l0.267,0.046c1.181,0.209,2.08-0.592,2.012-1.788l-0.25-4.291    c-0.068-1.196-0.57-1.303-1.12-0.238l-2.049,3.967C27.146,6.198,27.657,7.229,28.837,7.438z" fill="#ffe700" data-original="#010002" class=""/>
		<path style="" d="M29.101,44.008l-0.266,0.047c-1.18,0.209-1.751,1.27-1.277,2.369l1.701,3.946    c0.475,1.101,0.982,1.029,1.135-0.159l0.567-4.431C31.114,44.592,30.282,43.799,29.101,44.008z" fill="#ffe700" data-original="#010002" class=""/>
		<path style="" d="M22.389,7.483l0.267-0.046c1.18-0.209,1.751-1.269,1.278-2.369l-1.702-3.947    c-0.473-1.1-0.982-1.029-1.134,0.159L20.53,5.71C20.377,6.898,21.209,7.692,22.389,7.483z" fill="#ffe700" data-original="#010002" class=""/>
		<path style="" d="M37.5,42.789c-0.264-1.169-1.318-1.631-2.354-1.031l-0.234,0.135    c-1.036,0.6-1.211,1.791-0.391,2.662l2.949,3.129c0.82,0.871,1.273,0.631,1.01-0.539L37.5,42.789z" fill="#ffe700" data-original="#010002" class=""/>
		<path style="" d="M13.991,8.7c0.264,1.169,1.317,1.631,2.355,1.032l0.233-0.136c1.037-0.598,1.212-1.79,0.391-2.661    l-2.948-3.128c-0.821-0.871-1.274-0.63-1.011,0.538L13.991,8.7z" fill="#ffe700" data-original="#010002" class=""/>
		<path style="" d="M42.619,37.74c-0.646-1.008-1.795-1.081-2.564-0.164l-0.172,0.208    c-0.771,0.917-0.525,2.097,0.545,2.636l3.838,1.93c1.069,0.537,1.414,0.156,0.767-0.853L42.619,37.74z" fill="#ffe700" data-original="#010002" class=""/>
		<path style="" d="M8.871,13.75c0.646,1.008,1.794,1.081,2.565,0.164l0.173-0.208c0.77-0.917,0.526-2.097-0.544-2.635    L7.227,9.139C6.157,8.601,5.813,8.983,6.46,9.991L8.871,13.75z" fill="#ffe700" data-original="#010002" class=""/>
		<path style="" d="M49.255,33.951l-3.55-2.706c-0.953-0.726-2.057-0.401-2.467,0.724l-0.092,0.253    c-0.409,1.125,0.224,2.15,1.412,2.291l4.268,0.5C50.014,35.153,50.208,34.678,49.255,33.951z" fill="#ffe700" data-original="#010002" class=""/>
		<path style="" d="M2.234,17.538l3.55,2.706c0.953,0.726,2.057,0.402,2.466-0.723l0.094-0.254    c0.409-1.126-0.224-2.151-1.413-2.292l-4.268-0.499C1.474,16.336,1.281,16.811,2.234,17.538z" fill="#ffe700" data-original="#010002" class=""/>
	</g>
</g>
<g xmlns="http://www.w3.org/2000/svg">
</g>
<g xmlns="http://www.w3.org/2000/svg">
</g>
<g xmlns="http://www.w3.org/2000/svg">
</g>
<g xmlns="http://www.w3.org/2000/svg">
</g>
<g xmlns="http://www.w3.org/2000/svg">
</g>
<g xmlns="http://www.w3.org/2000/svg">
</g>
<g xmlns="http://www.w3.org/2000/svg">
</g>
<g xmlns="http://www.w3.org/2000/svg">
</g>
<g xmlns="http://www.w3.org/2000/svg">
</g>
<g xmlns="http://www.w3.org/2000/svg">
</g>
<g xmlns="http://www.w3.org/2000/svg">
</g>
<g xmlns="http://www.w3.org/2000/svg">
</g>
<g xmlns="http://www.w3.org/2000/svg">
</g>
<g xmlns="http://www.w3.org/2000/svg">
</g>
<g xmlns="http://www.w3.org/2000/svg">
</g>
</g></svg>
