<svg height="480pt" viewBox="-32 0 480 480.01337" width="480pt" xmlns="http://www.w3.org/2000/svg"><path d="m232.007812 296.011719c0-4.417969-3.582031-8-8-8-4.417968 0-8 3.582031-8 8v32c0 4.421875 3.582032 8 8 8 4.417969 0 8-3.578125 8-8zm0 0"/><path d="m264.007812 296.011719c0-4.417969-3.582031-8-8-8-4.417968 0-8 3.582031-8 8v32c0 4.421875 3.582032 8 8 8 4.417969 0 8-3.578125 8-8zm0 0"/><path d="m280.007812 296.011719v32c0 4.421875 3.582032 8 8 8 4.417969 0 8-3.578125 8-8v-32c0-4.417969-3.582031-8-8-8-4.417968 0-8 3.582031-8 8zm0 0"/><path d="m312.007812 328.011719c0 4.421875 3.582032 8 8 8 4.417969 0 8-3.578125 8-8v-32c0-4.417969-3.582031-8-8-8-4.417968 0-8 3.582031-8 8zm0 0"/><path d="m104.007812 296.011719c0-4.417969-3.582031-8-8-8-4.417968 0-8 3.582031-8 8v32c0 4.421875 3.582032 8 8 8 4.417969 0 8-3.578125 8-8zm0 0"/><path d="m136.007812 296.011719c0-4.417969-3.582031-8-8-8-4.417968 0-8 3.582031-8 8v32c0 4.421875 3.582032 8 8 8 4.417969 0 8-3.578125 8-8zm0 0"/><path d="m168.007812 296.011719c0-4.417969-3.582031-8-8-8-4.417968 0-8 3.582031-8 8v32c0 4.421875 3.582032 8 8 8 4.417969 0 8-3.578125 8-8zm0 0"/><path d="m200.007812 296.011719c0-4.417969-3.582031-8-8-8-4.417968 0-8 3.582031-8 8v32c0 4.421875 3.582032 8 8 8 4.417969 0 8-3.578125 8-8zm0 0"/><path d="m208.007812 256.011719c4.417969 0 8-3.578125 8-8v-32c0-4.417969-3.582031-8-8-8-4.417968 0-8 3.582031-8 8v32c0 4.421875 3.582032 8 8 8zm0 0"/><path d="m240.007812 256.011719c4.417969 0 8-3.578125 8-8v-32c0-4.417969-3.582031-8-8-8-4.417968 0-8 3.582031-8 8v32c0 4.421875 3.582032 8 8 8zm0 0"/><path d="m272.007812 256.011719c4.417969 0 8-3.578125 8-8v-32c0-4.417969-3.582031-8-8-8-4.417968 0-8 3.582031-8 8v32c0 4.421875 3.582032 8 8 8zm0 0"/><path d="m304.007812 256.011719c4.417969 0 8-3.578125 8-8v-32c0-4.417969-3.582031-8-8-8-4.417968 0-8 3.582031-8 8v32c0 4.421875 3.582032 8 8 8zm0 0"/><path d="m336.007812 256.011719c4.417969 0 8-3.578125 8-8v-32c0-4.417969-3.582031-8-8-8-4.417968 0-8 3.582031-8 8v32c0 4.421875 3.582032 8 8 8zm0 0"/><path d="m240.007812 368.011719c-4.417968 0-8 3.582031-8 8v32c0 4.421875 3.582032 8 8 8 4.417969 0 8-3.578125 8-8v-32c0-4.417969-3.582031-8-8-8zm0 0"/><path d="m272.007812 368.011719c-4.417968 0-8 3.582031-8 8v32c0 4.421875 3.582032 8 8 8 4.417969 0 8-3.578125 8-8v-32c0-4.417969-3.582031-8-8-8zm0 0"/><path d="m304.007812 368.011719c-4.417968 0-8 3.582031-8 8v32c0 4.421875 3.582032 8 8 8 4.417969 0 8-3.578125 8-8v-32c0-4.417969-3.582031-8-8-8zm0 0"/><path d="m112.007812 368.011719c-4.417968 0-8 3.582031-8 8v32c0 4.421875 3.582032 8 8 8 4.417969 0 8-3.578125 8-8v-32c0-4.417969-3.582031-8-8-8zm0 0"/><path d="m144.007812 368.011719c-4.417968 0-8 3.582031-8 8v32c0 4.421875 3.582032 8 8 8 4.417969 0 8-3.578125 8-8v-32c0-4.417969-3.582031-8-8-8zm0 0"/><path d="m176.007812 368.011719c-4.417968 0-8 3.582031-8 8v32c0 4.421875 3.582032 8 8 8 4.417969 0 8-3.578125 8-8v-32c0-4.417969-3.582031-8-8-8zm0 0"/><path d="m208.007812 368.011719c-4.417968 0-8 3.582031-8 8v32c0 4.421875 3.582032 8 8 8 4.417969 0 8-3.578125 8-8v-32c0-4.417969-3.582031-8-8-8zm0 0"/><path d="m408.007812 112.011719h-12.144531c-6.71875-18.960938-21.0625-34.25-39.5625-42.160157-22.347656-43.480468-67.410156-70.542968-116.292969-69.8398432-40.082031-.3437498-78.113281 17.6953122-103.199218 48.9531252-.800782-.085938-1.601563-.128906-2.402344-.207032-1.113281-.105468-2.214844-.199218-3.335938-.28125-3.703124-.269531-7.398437-.464843-11.0625-.464843-53.441406 0-97.546874 28.058593-103.320312 64h-8.679688c-4.417968 0-7.9999995 3.582031-7.9999995 8v32c0 4.421875 3.5820315 8 7.9999995 8h9.109376l46.976562 313.1875c.585938 3.914062 3.953125 6.8125 7.914062 6.8125h272c3.960938 0 7.324219-2.898438 7.910157-6.8125l46.976562-313.1875h9.113281c4.417969 0 8-3.578125 8-8v-32c0-4.417969-3.582031-8-8-8zm-277.785156-47.582031c1.769532.136718 3.535156.367187 5.3125.574218 21.855469 1.722656 42.53125 10.621094 58.808594 25.304688 2.003906 2.082031 4.976562 2.921875 7.777344 2.191406 2.796875-.726562 4.984375-2.90625 5.71875-5.703125.738281-2.796875-.09375-5.773437-2.167969-7.785156-14.144531-13.316407-31.628906-22.558594-50.601563-26.742188 22.046876-23.363281 52.816407-36.496093 84.9375-36.257812 37.570313-.445313 72.953126 17.640625 94.589844 48.363281-8.25-.753906-16.566406-.082031-24.589844 1.980469-4.28125 1.105469-6.855468 5.472656-5.75 9.75 1.105469 4.277343 5.46875 6.851562 9.75 5.746093 10.816407-2.863281 22.242188-2.414062 32.800782 1.289063.253906.179687.519531.339844.796875.480469 13.558593 5.113281 24.601562 15.292968 30.800781 28.390625h-345.390625c.136719-.613281.269531-1.238281.4375-1.847657.210937-.742187.417969-1.488281.671875-2.222656.355469-1.03125.800781-2.039062 1.234375-3.046875.304687-.695312.582031-1.394531.933594-2.074219.53125-1.046874 1.152343-2.070312 1.777343-3.09375.375-.601562.710938-1.226562 1.113282-1.824218.800781-1.160156 1.679687-2.289063 2.589844-3.410156.335937-.414063.632812-.855469.984374-1.269532 1.332032-1.550781 2.746094-3.027344 4.234376-4.425781.320312-.304687.695312-.589844 1.03125-.894531 1.222656-1.105469 2.472656-2.191406 3.816406-3.242188.613281-.488281 1.292968-.933594 1.941406-1.40625 1.128906-.800781 2.265625-1.648437 3.472656-2.402344.800782-.503906 1.601563-.964843 2.402344-1.445312 1.167969-.703125 2.335938-1.402344 3.558594-2.066406.878906-.46875 1.785156-.910156 2.6875-1.359375 1.230468-.613281 2.472656-1.214844 3.753906-1.792969.957031-.421875 1.933594-.796875 2.925781-1.238281 1.296875-.527344 2.617188-1.046875 4-1.535157 1.023438-.367187 2.066407-.738281 3.113281-1.082031 1.382813-.453125 2.792969-.878906 4.214844-1.292969 1.074219-.304687 2.144532-.617187 3.25-.898437 1.46875-.382813 2.972656-.71875 4.488282-1.046875 1.101562-.242188 2.191406-.488281 3.308593-.703125 1.601563-.304687 3.203125-.554687 4.875-.800781 1.078125-.160156 2.144531-.34375 3.238281-.480469 1.832032-.230469 3.703126-.390625 5.601563-.542969.933594-.082031 1.855469-.191406 2.796875-.25 2.761719-.199218 5.632812-.304687 8.539062-.304687 3.4375 0 6.847657.160156 10.214844.417969zm146.679688 80.207031-65.160156 28.976562-22.792969-45.601562h125.363281zm-108.894532 71.375v8h-80v-96h80zm-80 32v-8h80v16h-80zm-72-120h56v16h-56zm321.109376 336h-258.222657l-45.601562-304h38.714843v104c0 4.421875 3.582032 8 8 8h96c4.417969 0 8-3.578125 8-8v-110.109375l16.839844 33.6875c1.910156 3.824218 6.492188 5.46875 10.398438 3.734375l70.464844-31.3125h101.007812zm62.890624-320h-82.296874l36-16h46.296874zm0 0"/></svg>